# xmcd
#
# Track frame offsets: 
#        150
#        17051
#        32907
#        45875
#        64093
#        80326
#        97105
#        112005
#        121552
#        136114
#        148360
#
# Disc length: 2247 seconds
#
# Revision: 2
# Processed by: cddbd v1.5.2PL0 Copyright (c) Steve Scherf et al.
# Submitted via: ExactAudioCopyFreeDBPlugin 1.0
#
DISCID=8f08c50b
DTITLE=Saun and Starr - Look Closer
DYEAR=2015
DGENRE=Soul
TTITLE0=Look Closer (Can't You See the Signs)
TTITLE1=Hot Shot
TTITLE2=Gonna Make Time
TTITLE3=Sunshine (You're Blowin' My Cool)
TTITLE4=If Only
TTITLE5=Another Love Like Mine
TTITLE6=Big Wheel
TTITLE7=Your Face Before My Eyes
TTITLE8=Dear Mister Teddy
TTITLE9=In the Night
TTITLE10=Blah Blah Blah Blah Blah Blah Blah
EXTD=
EXTT0=
EXTT1=
EXTT2=
EXTT3=
EXTT4=
EXTT5=
EXTT6=
EXTT7=
EXTT8=
EXTT9=
EXTT10=
PLAYORDER=
